<?xml version="1.0" encoding="utf-8"?>
<!-- Generator: Adobe Illustrator 25.2.0, SVG Export Plug-In . SVG Version: 6.00 Build 0)  -->
<svg version="1.1" id="Layer_1" xmlns="http://www.w3.org/2000/svg" xmlns:xlink="http://www.w3.org/1999/xlink" x="0px" y="0px"
	 viewBox="0 0 77.4 80" enable-background="new 0 0 77.4 80" xml:space="preserve">
<radialGradient id="SVGID_1_" cx="38.7163" cy="39.9608" r="54.6998" gradientUnits="userSpaceOnUse">
	<stop  offset="9.905890e-02" style="stop-color:#FFF44F"/>
	<stop  offset="0.3308" style="stop-color:#FF980E"/>
	<stop  offset="0.6366" style="stop-color:#FF5634"/>
	<stop  offset="0.8737" style="stop-color:#FF3647"/>
</radialGradient>
<path fill="url(#SVGID_1_)" d="M74.6,26.8L74.6,26.8c-1.7-4-5.1-8.4-7.8-9.8c1.9,3.7,3.2,7.7,3.9,11.8v0v0c0,0,0,0,0,0v0
	c-0.5-1.4-1.1-2.6-1.8-3.8c-4.4-8.3-10.8-12.7-16.1-21.1c-0.3-0.5-0.6-1-0.9-1.5c-0.2-0.3-0.3-0.6-0.4-0.8c-0.1-0.2-0.2-0.5-0.3-0.8
	C51.1,0.6,51,0.4,51,0.1c0,0,0,0,0,0c0,0,0,0,0,0C51,0,50.9,0,50.9,0c0,0,0,0-0.1,0c0,0,0,0,0,0c0,0,0,0,0,0l0,0
	c-9.7,5.7-13,16.2-13.3,21.5c0,0,0,0,0,0c0,0,0,0,0,0c0.5,0,0.9-0.1,1.4-0.1c4.4,0,8.6,1.5,11.9,4.1c2,1.6,3.7,3.5,5,5.8v0
	c-2.7-1.9-6.1-2.7-9.3-2.3c0,0,0,0,0,0c0,0,0,0,0,0c12.2,6.1,10.9,25.2-2.6,29.3c-1.9,0.6-4.1,0.9-6.5,0.7c-1.7-0.1-3.4-0.4-5-1
	c-0.4-0.1-0.8-0.3-1.1-0.5c-0.2-0.1-0.4-0.2-0.7-0.3l0,0c-0.2-0.1-0.4-0.2-0.6-0.3c0.2,0.1,0.4,0.2,0.5,0.3c0,0-0.1,0-0.1-0.1
	c0,0,0.1,0,0.1,0c-1.8-0.9-3.4-2.1-4.8-3.6c-2.3-2.4-4-5.6-4.3-9.1c0,0,1.8-6.7,12.8-6.7c1.2,0,4.6-3.3,4.7-4.3c0,0,0,0,0,0
	c0,0,0,0,0,0c0,0,0,0,0,0c0,0,0,0,0,0c0,0,0,0,0,0c0,0,0,0,0,0c-0.1-0.4-6.8-3-9.4-5.6c-1.4-1.4-2.1-2.1-2.7-2.6
	c-0.3-0.3-0.7-0.5-1-0.8c-0.9-3.1-0.9-6.4-0.1-9.5c0,0,0,0,0,0c0,0,0,0,0,0c-3.6,1.7-6.8,4.2-9.3,7.2c0,0,0,0,0,0c0,0,0,0,0,0h0
	c-0.3-0.4-0.5-0.9-0.7-1.5c-0.8-2.7-0.7-7.1-0.6-8.2c0,0,0,0,0,0c0,0,0,0,0,0c-0.5,0.2-0.9,0.4-1.3,0.7c-1.4,1-2.6,2.1-3.8,3.2
	c-0.5,0.5-0.9,1-1.3,1.4c-0.8,0.9-1.6,1.9-2.3,2.9v0C3.8,24.7,2,28.7,1.1,32.9c0,0-0.5,2.3-0.8,4.7c-0.1,1.1-0.2,2.1-0.3,3.2
	C0,40.9,0,41,0,41v0.2C0,62.7,17.4,80,38.8,79.9c11.8,0,22.5-5.3,29.6-13.8c4.3-5.1,7.3-11.4,8.5-18.3c0.1-0.5,0.1-1,0.2-1.5
	C77.9,39.7,77.1,33,74.6,26.8z"/>
</svg>
